<svg width="10" height="6" viewBox="0 0 10 6" fill="none" xmlns="http://www.w3.org/2000/svg">
<path fill-rule="evenodd" clip-rule="evenodd" d="M0.96967 0.71967C0.676777 1.01256 0.676777 1.48744 0.96967 1.78033L4.46967 5.28033C4.76256 5.57322 5.23744 5.57322 5.53033 5.28033L7.28033 3.53033C7.57322 3.23744 7.57322 2.76256 7.28033 2.46967C6.98744 2.17678 6.51256 2.17678 6.21967 2.46967L5 3.68934L2.03033 0.71967C1.73744 0.426777 1.26256 0.426777 0.96967 0.71967ZM7.53217 2.21783C7.82506 2.51072 8.29994 2.51072 8.59283 2.21783L9.03033 1.78033C9.32322 1.48744 9.32322 1.01256 9.03033 0.71967C8.73744 0.426777 8.26256 0.426777 7.96967 0.71967L7.53217 1.15717C7.23928 1.45006 7.23928 1.92494 7.53217 2.21783Z" fill="#0D1720"/>
</svg>
