<svg width="10" height="6" viewBox="0 0 10 6" fill="none" xmlns="http://www.w3.org/2000/svg">
<path fill-rule="evenodd" clip-rule="evenodd" d="M9.03033 5.28033C9.32322 4.98744 9.32322 4.51256 9.03033 4.21967L5.53033 0.71967C5.23744 0.426777 4.76256 0.426777 4.46967 0.71967L2.71967 2.46967C2.42678 2.76256 2.42678 3.23744 2.71967 3.53033C3.01256 3.82322 3.48744 3.82322 3.78033 3.53033L5 2.31066L7.96967 5.28033C8.26256 5.57322 8.73744 5.57322 9.03033 5.28033ZM2.46783 3.78217C2.17494 3.48928 1.70006 3.48928 1.40717 3.78217L0.96967 4.21967C0.676777 4.51256 0.676777 4.98744 0.96967 5.28033C1.26256 5.57322 1.73744 5.57322 2.03033 5.28033L2.46783 4.84283C2.76072 4.54994 2.76072 4.07506 2.46783 3.78217Z" fill="#0D1720"/>
</svg>
