<svg width="22" height="22" viewBox="0 0 22 22" fill="none" xmlns="http://www.w3.org/2000/svg">
<path fill-rule="evenodd" clip-rule="evenodd" d="M11 20.25C16.1086 20.25 20.25 16.1086 20.25 11C20.25 5.89137 16.1086 1.75 11 1.75C9.68307 1.75 8.43229 2.02475 7.30028 2.51935C6.92071 2.68519 6.47857 2.51193 6.31274 2.13237C6.1469 1.7528 6.32016 1.31066 6.69972 1.14482C8.01756 0.569035 9.47251 0.25 11 0.25C16.9371 0.25 21.75 5.06294 21.75 11C21.75 16.9371 16.9371 21.75 11 21.75C5.06294 21.75 0.25 16.9371 0.25 11C0.25 8.58081 1.05001 6.34631 2.39959 4.54957C2.64836 4.21838 3.11851 4.15156 3.4497 4.40033C3.78089 4.64909 3.84771 5.11924 3.59894 5.45043C2.43777 6.99633 1.75 8.91677 1.75 11C1.75 16.1086 5.89137 20.25 11 20.25Z" fill="#FFFFFF"/>
<path fill-rule="evenodd" clip-rule="evenodd" d="M11 18.4165C11.4142 18.4165 11.75 18.0807 11.75 17.6665V7.6665C11.75 7.25229 11.4142 6.9165 11 6.9165C10.5858 6.9165 10.25 7.25229 10.25 7.6665V17.6665C10.25 18.0807 10.5858 18.4165 11 18.4165Z" fill="#FFFFFF"/>
<path fill-rule="evenodd" clip-rule="evenodd" d="M11 6.00977C11.4142 6.00977 11.75 5.67398 11.75 5.25977V4.33318C11.75 3.91897 11.4142 3.58318 11 3.58318C10.5858 3.58318 10.25 3.91897 10.25 4.33318V5.25977C10.25 5.67398 10.5858 6.00977 11 6.00977Z" fill="#FFFFFF"/>
</svg>
