<svg width="18" height="18" viewBox="0 0 18 18" fill="none" xmlns="http://www.w3.org/2000/svg">
<g clip-path="url(#clip0_153_247)">
<path d="M9.00024 18.0001C13.9708 18.0001 18.0002 13.9707 18.0002 9.00012C18.0002 4.02956 13.9708 0.00012207 9.00024 0.00012207C4.02968 0.00012207 0.000244141 4.02956 0.000244141 9.00012C0.000244141 13.9707 4.02968 18.0001 9.00024 18.0001Z" fill="#F0F0F0"/>
<path d="M11.9232 6.65213H10.7456C10.7554 6.78154 10.7609 6.91212 10.7609 7.04342C10.7609 7.91403 10.5433 8.75789 10.1639 9.35857C10.0469 9.54384 9.85021 9.80547 9.58696 9.98196V6.6521H8.41306V9.98196C8.14984 9.80547 7.95315 9.54388 7.83611 9.35857C7.4567 8.75789 7.23912 7.91403 7.23912 7.04342C7.23912 6.91212 7.24468 6.78151 7.25438 6.65213H6.07686C6.0693 6.78091 6.06519 6.91134 6.06519 7.04342C6.06519 9.45711 7.35429 11.3478 8.99996 11.3478C10.6456 11.3478 11.9347 9.45711 11.9347 7.04342C11.9348 6.91134 11.9307 6.78091 11.9232 6.65213Z" fill="#D80027"/>
<path d="M3.71741 4.30436H4.89132V5.08697H6.06522V4.30436H7.23912V5.08697H8.41302V4.30436H9.58693V5.08697H10.7608V4.30436H11.9347V5.08697H13.1086V4.30436H14.2825V5.08697H17.1069C15.6512 2.0765 12.5681 0 9.00003 0C5.43191 0 2.34882 2.0765 0.893066 5.08697H3.71741V4.30436Z" fill="#6DA544"/>
<path d="M14.2826 12.9131V13.6957H13.1087V12.9131H11.9348V13.6957H10.7609V12.9131H9.58703V13.6957H8.41313V12.9131H7.23923V13.6957H6.06533V12.9131H4.89132V13.6957H3.71741V12.9131H0.893066C2.34882 15.9236 5.43188 18.0001 9.00003 18.0001C12.5682 18.0001 15.6512 15.9236 17.107 12.9131H14.2826Z" fill="#D80027"/>
</g>
<defs>
<clipPath id="clip0_153_247">
<rect width="18" height="18" fill="white"/>
</clipPath>
</defs>
</svg>
